<svg xmlns="http://www.w3.org/2000/svg" width="28" height="28" viewBox="0 0 28 28">
  <g id="icn-clients" transform="translate(-108 -188)">
    <path id="Vector" d="M22.268,6.078c-.992-1.1-2.648-1.645-5.052-1.645h-.28V4.387c0-1.96,0-4.387-4.387-4.387H10.777C6.39,0,6.39,2.438,6.39,4.387v.058H6.11c-2.415,0-4.06.548-5.052,1.645a5.305,5.305,0,0,0-1,4.188l.012.082.117,1.225s.84.56,1.26.793c.163.1.338.2.513.292a20.026,20.026,0,0,0,6.417,2.193c.105,1.1.583,2.38,3.138,2.38s3.057-1.272,3.138-2.4A19.633,19.633,0,0,0,21.4,12.413c.07-.035.117-.07.175-.1a16.233,16.233,0,0,0,1.587-1.05l.047-.42.058-.548c.012-.07.012-.128.023-.21A5.171,5.171,0,0,0,22.268,6.078ZM12.935,14.07c0,1.237,0,1.423-1.435,1.423s-1.435-.222-1.435-1.412v-1.47h2.87ZM8.058,4.433V4.387c0-1.983,0-2.718,2.718-2.718H12.55c2.718,0,2.718.747,2.718,2.718v.058H8.058Z" transform="translate(110.337 190.065)" fill="#fff"/>
    <path id="Vector-2" data-name="Vector" d="M22.563,0,22.05,5.655c-.245,2.333-1.2,4.713-6.335,4.713H6.825c-5.133,0-6.09-2.38-6.335-4.7L0,.276A46.254,46.254,0,0,0,6.533,2.843c.642,1.7,2.228,2.613,4.585,2.613,2.333,0,3.943-.945,4.585-2.648A44.725,44.725,0,0,0,22.563,0Z" transform="translate(110.73 203.567)" fill="#fff"/>
    <path id="Vector-3" data-name="Vector" d="M0,0H28V28H0Z" transform="translate(136 216) rotate(180)" fill="none" opacity="0"/>
  </g>
</svg>
