<svg xmlns="http://www.w3.org/2000/svg" width="23.334" height="24.16" viewBox="0 0 23.334 24.16">
  <g id="icn-expertise" transform="translate(-2.333 -1.508)">
    <path id="Vector" d="M5.448,0H2.333A2.34,2.34,0,0,0,0,2.333V8.167A1.17,1.17,0,0,0,1.167,9.333H5.448A1.17,1.17,0,0,0,6.615,8.167v-7A1.17,1.17,0,0,0,5.448,0Z" transform="translate(2.333 16.334)" fill="#fff"/>
    <path id="Vector-2" data-name="Vector" d="M5.448,0H2.333A2.34,2.34,0,0,0,0,2.333v10.5A1.17,1.17,0,0,0,1.167,14H6.615a1.17,1.17,0,0,0,1.167-1.167V2.333A2.333,2.333,0,0,0,5.448,0Z" transform="translate(10.104 11.666)" fill="#fff"/>
    <path id="Vector-3" data-name="Vector" d="M4.282,0H1.167A1.17,1.17,0,0,0,0,1.167v3.5A1.17,1.17,0,0,0,1.167,5.833H5.448A1.17,1.17,0,0,0,6.615,4.667V2.333A2.34,2.34,0,0,0,4.282,0Z" transform="translate(19.052 19.834)" fill="#fff"/>
    <path id="Vector-4" data-name="Vector" d="M7.449,4.15a1.178,1.178,0,0,0,.385-1.167,1.15,1.15,0,0,0-.992-.723l-1.12-.187a.315.315,0,0,1-.175-.128L4.929.709a1.056,1.056,0,0,0-2,0L2.315,1.945a.258.258,0,0,1-.163.128l-1.12.187a1.166,1.166,0,0,0-.992.723A1.178,1.178,0,0,0,.425,4.15l.863.875a.316.316,0,0,1,.07.222L1.114,6.32c-.187.8.117,1.167.315,1.307A1.161,1.161,0,0,0,2.77,7.534l1.05-.618a.3.3,0,0,1,.245,0L5.1,7.534a1.544,1.544,0,0,0,.8.257.929.929,0,0,0,.525-.163c.2-.14.5-.5.315-1.307L6.5,5.247a.3.3,0,0,1,.07-.222Z" transform="translate(10.063 1.508)" fill="#fff"/>
  </g>
</svg>
