<svg xmlns="http://www.w3.org/2000/svg" width="28" height="28" viewBox="0 0 28 28">
  <g id="icn-solutions" transform="translate(-300 -252)">
    <g id="_3d-square" data-name="3d-square" transform="translate(300 252)">
      <path id="Vector" d="M0,0H28V28H0Z" fill="none" opacity="0"/>
      <path id="Vector-2" data-name="Vector" d="M16.555,0H6.778C2.532,0,0,2.543,0,6.79v9.765c0,4.247,2.532,6.778,6.778,6.778h9.765c4.247,0,6.778-2.532,6.778-6.778V6.79C23.333,2.543,20.8,0,16.555,0Zm-5.39,17.255a.988.988,0,0,1-.478.852.947.947,0,0,1-.525.152,1.078,1.078,0,0,1-.455-.105L5.623,16.112a1.76,1.76,0,0,1-.957-1.563V10.687a.988.988,0,0,1,.478-.852,1.011,1.011,0,0,1,.98-.047l4.083,2.042a1.749,1.749,0,0,1,.968,1.563v3.862Zm-.245-6.242L6.533,8.645a1.015,1.015,0,0,1-.513-.9,1.029,1.029,0,0,1,.513-.9L10.92,4.48a1.585,1.585,0,0,1,1.482,0l4.387,2.368a1.043,1.043,0,0,1,0,1.8L12.4,11.013a1.541,1.541,0,0,1-.747.187A1.5,1.5,0,0,1,10.92,11.013Zm7.747,3.535a1.736,1.736,0,0,1-.968,1.563l-4.083,2.042a1,1,0,0,1-.455.105.947.947,0,0,1-.525-.152.988.988,0,0,1-.478-.852V13.393a1.736,1.736,0,0,1,.968-1.563l4.083-2.042a1.011,1.011,0,0,1,.98.047.988.988,0,0,1,.478.852Z" transform="translate(2.333 2.718)" fill="#fff"/>
    </g>
  </g>
</svg>
