<svg xmlns="http://www.w3.org/2000/svg" width="28" height="28" viewBox="0 0 28 28">
  <g id="icn-experience" transform="translate(-364 -380)">
    <g id="cup" transform="translate(364 380)">
      <path id="Vector" d="M6.994,2.675H4.371A2.341,2.341,0,0,0,2.04,5.011V5.3H.874a.876.876,0,0,0,0,1.752H14.861a.876.876,0,0,0,0-1.752H13.7V5.011a2.341,2.341,0,0,0-2.331-2.336H8.742V0a7.307,7.307,0,0,1-.874.047A7.307,7.307,0,0,1,6.994,0Z" transform="translate(6.132 18.609)" fill="#fff"/>
      <path id="Vector-2" data-name="Vector" d="M18.895,11.26a5.705,5.705,0,0,0,1.983-1.308,6.381,6.381,0,0,0,1.8-4.322,2.969,2.969,0,0,0-3-3h-.653A4.659,4.659,0,0,0,14.836,0h-7A4.659,4.659,0,0,0,3.651,2.628H3a2.969,2.969,0,0,0-3,3A6.381,6.381,0,0,0,1.8,9.952,5.706,5.706,0,0,0,3.779,11.26a8.155,8.155,0,0,0,15.116,0ZM14.649,7.534l-.723.888a.878.878,0,0,0-.187.561l.07,1.145a.75.75,0,0,1-1.108.806l-1.061-.42a1.072,1.072,0,0,0-.606,0l-1.061.42a.75.75,0,0,1-1.108-.806l.07-1.145a.878.878,0,0,0-.187-.561l-.723-.888a.752.752,0,0,1,.42-1.308l1.108-.28a.926.926,0,0,0,.478-.362l.618-.958a.753.753,0,0,1,1.376,0l.618.958a.926.926,0,0,0,.478.362l1.108.28A.752.752,0,0,1,14.649,7.534Z" transform="translate(2.663 2.336)" fill="#fff"/>
      <path id="Vector-3" data-name="Vector" d="M0,0H28V28H0Z" transform="translate(28 28) rotate(180)" fill="none" opacity="0"/>
    </g>
  </g>
</svg>
